PathFileType	4	(X/Y/Z)	E:\Studenten\Marcel_BSc\Ayumi_25_09_2024\25-09-2024\sumo_dl_80kg.trc
DataRate	CameraRate	NumFrames	NumMarkers	Units	OrigDataRate	OrigDataStartFrame	OrigNumFrames
200.0	200.0	4	52	mm	200.0	2474	2827	
Frame#	Time	RSACR			LSACR			USACR			LBAR			RBAR			RHEE			RMT1			RMT5			RMT2			LHEE			LMT1			LMT5			LMT2			LMMAL			LLMAL			LTIB4			LTIB2			LTIB3			LTIB1			RMMAL			RLMAL			RTIB1			RTIB2			RTIB3			RTHI1			RTHI4			RTHI3			RTHI2			LTHI1			LTHI4			LTHI3			LTHI2			FHD			LBHD			RBHD			C7			T10			CLAV			LSHO			RSHO			LRAD			LUL			LRFIN			RRAD			RUL			RUFIN			LDUPA			LMUPA			LUUPA			RDUPA			RUUPA			RMUPA			
		X1	Y1	Z1	X2	Y2	Z2	X3	Y3	Z3	X4	Y4	Z4	X5	Y5	Z5	X6	Y6	Z6	X7	Y7	Z7	X8	Y8	Z8	X9	Y9	Z9	X10	Y10	Z10	X11	Y11	Z11	X12	Y12	Z12	X13	Y13	Z13	X14	Y14	Z14	X15	Y15	Z15	X16	Y16	Z16	X17	Y17	Z17	X18	Y18	Z18	X19	Y19	Z19	X20	Y20	Z20	X21	Y21	Z21	X22	Y22	Z22	X23	Y23	Z23	X24	Y24	Z24	X25	Y25	Z25	X26	Y26	Z26	X27	Y27	Z27	X28	Y28	Z28	X29	Y29	Z29	X30	Y30	Z30	X31	Y31	Z31	X32	Y32	Z32	X33	Y33	Z33	X34	Y34	Z34	X35	Y35	Z35	X36	Y36	Z36	X37	Y37	Z37	X38	Y38	Z38	X39	Y39	Z39	X40	Y40	Z40	X41	Y41	Z41	X42	Y42	Z42	X43	Y43	Z43	X44	Y44	Z44	X45	Y45	Z45	X46	Y46	Z46	X47	Y47	Z47	X48	Y48	Z48	X49	Y49	Z49	X50	Y50	Z50	X51	Y51	Z51	X52	Y52	Z52	
2474	12.365	410.25534	854.29095	-970.38019	411.40359	859.29858	-911.69916	396.11316	867.0871	-941.14886	230.75528	251.94803	194.54556	201.88026	244.4671	-2026.3031	289.81836	30.2022	-1387.5735	128.25714	43.744106	-1499.5791	194.65607	29.220203	-1547.5125	157.5197	42.093658	-1528.4882	331.1734	42.266293	-481.02567	166.69817	48.546944	-379.7771	231.70821	30.77951	-332.25015	192.57961	47.076206	-350.25876	270.42151	68.152481	-494.65393	312.48795	73.095398	-424.66135	327.15439	207.94969	-483.73001	311.5603	271.54382	-487.52777	348.33371	258.49646	-520.40106	341.87656	300.77881	-527.18433	239.67001	61.576561	-1384.8827	284.23355	71.646805	-1443.2571	289.53217	310.25916	-1364.0726	328.85834	288.48172	-1339.8425	297.45032	247.01505	-1379.8687	389.48132	711.67236	-1128.5697	318.07251	599.13177	-1215.2462	360.7536	572.16455	-1207.2726	363.52512	633.0799	-1181.6548	397.05417	721.95245	-742.43018	367.51154	592.87006	-659.19403	321.54721	611.74377	-644.04889	356.09293	654.55872	-679.86426	-54.739845	1349.2915	-823.42468	41.885376	1399.7614	-853.8963	38.6465	1385.8789	-978.21918	157.24738	1226.0048	-918.43048	363.43948	906.94397	-938.46985	71.125534	1111.958	-918.54639	146.76727	1169.5454	-744.52026	86.621887	1157.3298	-1076.1838	196.60507	643.70776	-642.71564	220.49031	649.65283	-610.36926	175.00079	562.32959	-634.70013	188.71455	632.73236	-1179.3668	198.99748	640.56012	-1225.6084	178.10274	553.32892	-1183.8696	155.69801	944.46454	-692.39746	194.41469	929.17944	-665.03131	171.52997	1002.8271	-683.48651	116.7887	897.65472	-1112.5505	113.84141	972.62915	-1138.7028	132.54143	915.66034	-1156.2482
2475	12.37	408.78992	854.78748	-970.52814	409.7897	859.67224	-911.85217	394.75388	867.67078	-941.28192	230.76544	251.98474	194.45168	201.78796	244.48994	-2026.3917	289.80823	30.168404	-1387.5402	128.22897	43.719555	-1499.5857	194.65762	29.237534	-1547.4987	157.48428	42.102386	-1528.4725	331.14661	42.256531	-481.06586	166.68091	48.551392	-379.80209	231.68643	30.787235	-332.27728	192.58568	47.07122	-350.2843	270.37967	68.070236	-494.72595	312.41763	73.113625	-424.78387	326.95737	207.94003	-484.06525	311.34482	271.51511	-487.95203	348.1412	258.47052	-520.74628	341.62436	300.75449	-527.60504	239.63707	61.514629	-1384.8191	284.16199	71.678078	-1443.1445	289.47711	310.46304	-1363.8328	328.50803	288.47	-1339.5205	297.67877	246.96277	-1379.3009	387.59702	712.1048	-1128.4639	316.63788	599.16437	-1215.1892	359.19217	572.17926	-1206.4578	361.84085	633.26398	-1181.4153	395.30054	722.41174	-742.59943	366.17984	593.06244	-659.578	320.27295	611.74847	-644.27313	354.55359	654.81946	-680.10767	-52.367512	1353.3588	-823.83441	44.831963	1402.8553	-854.12653	41.731522	1389.0742	-978.50269	158.60829	1228.2085	-918.59796	362.38232	907.58673	-938.59924	71.660248	1114.842	-918.78271	148.03697	1171.9497	-744.8045	87.799355	1160.3423	-1076.5114	196.98376	646.42267	-641.80829	221.04803	652.43909	-609.53412	175.14871	565.16943	-633.43823	188.9364	635.91559	-1180.9565	199.51579	643.83911	-1227.1388	177.97697	556.63684	-1185.6753	156.53923	947.10693	-692.26245	195.39732	931.80432	-664.95972	172.58519	1005.4059	-683.55786	117.40414	900.71619	-1113.7341	114.746	975.82495	-1139.5952	133.39561	918.87341	-1157.27
2476	12.375	407.33932	855.28607	-970.64111	408.41422	860.2074	-911.98114	393.37198	868.23761	-941.41187	230.77393	252.00865	194.36313	201.71428	244.50755	-2026.4702	289.68747	30.116993	-1387.6029	128.20848	43.703854	-1499.547	194.62541	29.260439	-1547.4718	157.45222	42.106232	-1528.4595	331.11264	42.247723	-481.09866	166.64737	48.554501	-379.84085	231.69316	30.810383	-332.28918	192.56052	47.068031	-350.29764	270.08789	68.265945	-494.7005	312.34653	73.196953	-424.8219	326.741	207.89954	-484.35495	311.12482	271.48691	-488.33899	347.73843	258.42227	-521.2511	341.36389	300.71198	-528.06506	239.59937	61.451157	-1384.7404	284.05954	71.712517	-1443.0369	289.01248	310.4162	-1363.3468	328.1738	288.5123	-1339.1012	297.04428	247.03683	-1379.2731	385.72659	712.51105	-1128.3314	315.15854	599.06897	-1215.186	357.69547	572.24451	-1206.1035	360.12082	633.35974	-1181.2174	393.59076	722.85455	-742.7785	364.88034	593.24188	-659.91803	318.9187	611.74109	-644.47253	353.0184	655.02911	-680.21185	-49.922771	1357.3699	-824.22516	47.770756	1405.9321	-854.30566	44.727165	1392.1906	-978.77246	160.00331	1230.3909	-918.79333	361.30185	908.23376	-938.69189	72.187813	1117.6763	-918.99689	149.29308	1174.3325	-745.11572	89.002068	1163.3237	-1076.8254	197.42764	649.10944	-640.83478	221.91969	655.03198	-608.95526	175.3436	567.95782	-632.09833	189.13968	639.07483	-1182.5858	199.95634	647.04071	-1228.7018	177.91658	559.89807	-1187.4819	157.45001	949.71271	-692.02002	196.41417	934.35071	-664.97449	173.93988	1008.0129	-683.79321	117.98579	903.77869	-1114.9446	115.64696	979.00946	-1140.4807	134.23141	922.07721	-1158.3206
2477	12.38	405.90909	855.72217	-970.75385	406.97714	860.64899	-912.07379	391.98679	868.76398	-941.50006	230.78792	252.01273	194.27426	201.64372	244.51312	-2026.5488	289.70706	30.122105	-1387.4675	128.16878	43.694584	-1499.5221	194.58279	29.265501	-1547.4701	157.42815	42.09573	-1528.4305	331.07733	42.227451	-481.13971	166.5985	48.547779	-379.85547	231.6582	30.820509	-332.31085	192.5076	47.07513	-350.31918	270.22202	67.967636	-494.89713	312.28741	73.207832	-424.99051	326.46014	207.82307	-484.77277	310.19394	270.94177	-489.23184	347.51108	258.38846	-521.64185	341.06992	300.64774	-528.52393	239.5531	61.382652	-1384.6613	283.98831	71.746803	-1442.9314	288.16162	310.18695	-1362.6531	327.76978	288.52759	-1338.7286	296.90802	246.98633	-1378.8223	383.78592	712.86414	-1128.2162	313.35709	598.75623	-1214.4102	356.49716	572.22729	-1205.4337	358.30664	633.65082	-1181.1702	391.66394	723.10864	-742.81696	363.58572	593.42523	-660.2804	317.5751	611.71423	-644.69269	351.51935	655.18719	-680.26447	-47.548813	1361.286	-824.60828	50.733406	1408.9291	-854.50189	47.814598	1395.2571	-978.99792	161.38792	1232.5227	-918.95288	360.28305	908.84625	-938.77441	72.682701	1120.4751	-919.22443	150.58455	1176.6754	-745.39648	90.233498	1166.2896	-1077.1184	197.83098	651.78406	-639.84302	222.40816	657.78583	-607.98138	175.54976	570.73749	-630.69226	189.32669	642.21417	-1184.2213	200.31465	650.24463	-1230.2855	177.94991	563.10889	-1189.2852	158.29683	952.26483	-691.8833	197.39847	936.93384	-664.92285	175.02164	1010.5622	-683.83838	118.45325	906.83447	-1116.1525	116.5198	982.18286	-1141.3789	135.06374	925.30188	-1159.3573
